<svg width="193" height="193" viewBox="0 0 193 193" fill="none" xmlns="http://www.w3.org/2000/svg">
<g clip-path="url(#clip0_89_2)">
<path d="M134.714 100.263C133.172 99.7158 131.453 100.198 130.42 101.467L93.5007 146.855C92.5593 148.012 92.3676 149.608 93.0084 150.955C93.6492 152.302 95.0082 153.161 96.5003 153.161H133.42C135.555 153.161 137.286 151.43 137.286 149.294V103.906C137.286 102.27 136.256 100.811 134.714 100.263ZM129.553 145.428H104.629L129.553 114.788V145.428Z" fill="#222222"/>
<path d="M173.143 0.222694C171.601 -0.324311 169.881 0.157218 168.848 1.42652L18.1527 186.694C17.2113 187.851 17.0201 189.447 17.6609 190.794C18.3017 192.142 19.6607 193 21.1527 193H171.848C173.984 193 175.715 191.269 175.715 189.133V3.86665C175.714 2.23027 174.684 0.771245 173.143 0.222694ZM29.282 185.267L167.981 14.748V38.2455H158.954C156.818 38.2455 155.087 39.9762 155.087 42.1121C155.087 44.2481 156.818 45.9788 158.954 45.9788H167.981V56.3745L158.954 56.3755C156.818 56.3755 155.087 58.1068 155.087 60.2427C155.088 62.3782 156.819 64.1089 158.954 64.1089L167.981 64.1078V74.5046H158.955C156.819 74.5046 155.088 76.2353 155.088 78.3712C155.088 80.5072 156.819 82.2379 158.955 82.2379H167.981V92.6336H158.955C156.819 92.6336 155.088 94.3643 155.088 96.5002C155.088 98.6362 156.819 100.367 158.955 100.367H167.981V110.763H158.955C156.819 110.763 155.088 112.493 155.088 114.629C155.088 116.765 156.819 118.496 158.955 118.496H167.981V128.892H158.954C156.818 128.892 155.087 130.622 155.087 132.758C155.087 134.894 156.818 136.625 158.954 136.625H167.981V147.021H158.955C156.819 147.021 155.088 148.751 155.088 150.887C155.088 153.023 156.819 154.754 158.955 154.754H167.981V165.151H158.954C156.818 165.151 155.087 166.881 155.087 169.017C155.087 171.153 156.818 172.884 158.954 172.884H167.981V185.267H29.282Z" fill="#222222"/>
</g>
<defs>
<clipPath id="clip0_89_2">
<rect width="193" height="193" fill="white"/>
</clipPath>
</defs>
</svg>
