<svg width="202" height="193" viewBox="0 0 202 193" fill="none" xmlns="http://www.w3.org/2000/svg">
<path d="M198.61 159.885C190.432 148.83 174.277 131.442 155.577 111.299C137.297 91.6278 116.594 69.3418 100.072 49.3124C97.0393 46.6354 94.6835 43.2785 93.1971 39.5163C92.9727 36.542 92.466 33.5958 91.684 30.7174C91.5353 30.1401 91.3604 29.4666 91.2729 28.9856C97.3833 24.0562 104.492 20.5137 112.107 18.6035C121.319 16.6609 130.673 15.4703 140.078 15.0437L149.612 14.6851L140.122 4.46918L138.828 4.16306C127.198 1.54077 115.325 0.15116 103.404 0.0172259C82.3877 -0.390408 61.8712 6.44741 45.3014 19.3819C45.1965 19.4694 34.9806 29.143 35.7677 36.1052C36.2576 40.5047 34.7444 41.6155 30.7123 44.598C29.5096 45.3877 28.4283 46.3482 27.5023 47.4494C22.884 46.9009 18.2027 47.5828 13.9327 49.426C9.66266 51.2692 5.95564 54.2081 3.18711 57.9452C1.92302 59.1568 0.987097 60.6695 0.466988 62.3415C-0.0531218 64.0135 -0.140405 65.7901 0.213311 67.5051C2.87815 76.2764 8.42932 83.8896 15.9657 89.1088C25.1495 93.4821 35.8727 87.1846 45.3801 71.7383C47.6734 67.7777 51.4193 64.8663 55.8234 63.6216C61.8225 65.0056 67.668 66.9863 73.2726 69.5342C74.0181 69.8624 74.8031 70.0917 75.608 70.2165C103.833 104.223 122.988 130.943 136.965 150.465C146.603 163.909 153.565 173.626 159.688 180.518L165.959 187.577C167.227 188.994 168.765 190.144 170.483 190.958C172.201 191.772 174.065 192.234 175.965 192.317L176.551 192.326C180.19 192.319 183.689 190.928 186.338 188.434L196.992 178.332C199.462 175.982 200.99 172.811 201.288 169.414C201.586 166.018 200.633 162.629 198.61 159.885ZM55.5523 54.8839C51.9032 55.53 48.438 56.9613 45.3964 59.0785C42.3549 61.1958 39.8097 63.9486 37.9369 67.1464C32.9426 75.2719 25.132 83.7648 19.8929 81.2982C14.8136 77.3166 10.9728 71.9712 8.81985 65.887C8.70614 64.7762 9.02976 64.4613 9.23093 64.2776C17.059 56.7994 19.0532 55.4961 26.8288 56.1696C27.8646 56.2484 28.9056 56.1195 29.8909 55.7906C30.8762 55.4616 31.7858 54.9393 32.5665 54.2541C33.6948 53.2745 34.8406 52.4261 35.9252 51.6302C38.844 50.1075 41.2275 47.729 42.7564 44.8135C44.2853 41.898 44.8864 38.5848 44.4792 35.318C45.9593 31.7661 48.1982 28.5809 51.0391 25.9855C66.046 14.4915 84.5044 8.42091 103.404 8.7637C107.104 8.7637 110.751 8.93863 114.197 9.21852C112.833 9.48092 111.486 9.76955 110.139 10.0757C101.007 12.3573 92.4971 16.6449 85.2291 22.6269C83.8506 23.8978 82.9113 25.5737 82.5466 27.4128C82.1819 29.252 82.4107 31.1595 83.1999 32.8603C83.8584 35.2448 84.2832 37.6879 84.4681 40.1548C85.2071 44.1547 87.0386 47.8721 89.7598 50.8955C87.7057 52.1593 85.7203 53.5315 83.8122 55.0063C81.1977 56.9123 78.7726 59.065 76.5701 61.435H76.5526C69.9355 58.1714 62.8505 55.967 55.5523 54.8839ZM190.965 171.99L180.321 182.084C179.795 182.597 179.168 182.995 178.48 183.251C177.791 183.507 177.057 183.616 176.324 183.571C175.599 183.541 174.887 183.366 174.23 183.056C173.574 182.747 172.986 182.309 172.501 181.769L166.221 174.711C160.396 168.151 153.189 158.101 144.067 145.366C130.273 126.124 111.425 99.8495 83.8122 66.4467C85.4799 64.8264 87.2535 63.3187 89.1213 61.9335C91.1764 60.3161 93.3453 58.8488 95.6112 57.5428C111.678 76.855 131.498 98.2489 149.157 117.255C167.682 137.197 183.679 154.428 191.56 165.081C192.317 166.109 192.674 167.378 192.563 168.65C192.451 169.921 191.88 171.109 190.957 171.99H190.965Z" fill="black"/>
</svg>
