<svg width="953" height="25" viewBox="0 0 953 25" fill="none" xmlns="http://www.w3.org/2000/svg">
<path d="M450.69 0.631125C442.796 1.9976 433.86 5.27715 422.691 10.9708C420.308 12.1551 418.074 13.1572 417.776 13.1572C417.404 13.1572 416.957 11.8363 416.808 10.242C416.287 6.73473 413.978 3.86512 410.329 2.362C405.564 0.357829 397.447 1.35991 394.543 4.22952C392.755 6.00594 392.755 7.55462 394.543 9.19439C396.851 11.3808 398.787 11.9274 402.883 11.6085C404.893 11.4263 406.532 11.4263 406.532 11.563C406.532 11.6996 406.01 12.4284 405.415 13.1116C402.659 16.4367 395.287 18.1676 387.766 17.3022C381.213 16.5734 375.479 15.0247 371.831 13.0205C368.778 11.2897 368.331 10.8342 368.033 8.78445C367.661 6.68918 367.81 6.37034 369.671 5.5049C372.426 4.18397 376.299 4.18397 377.862 5.5049C378.458 6.09704 379.203 7.32687 379.501 8.28341C379.947 10.242 380.618 10.6064 382.703 10.1965C383.894 9.96873 384.192 9.51324 384.192 7.64572C384.192 5.04941 382.852 3.18189 380.022 1.81541C378.458 1.08662 376.969 0.858871 373.245 0.858871C368.926 0.858871 368.182 0.995519 366.32 2.1798C364.98 2.99969 363.639 4.54836 362.895 6.27924C362.15 7.78236 361.182 9.05775 360.661 9.05775C360.214 9.05775 355.225 7.64572 349.714 5.91484C332.141 0.494477 334.523 0.676674 284.036 0.676674C242.707 0.722223 240.548 0.767773 234.144 1.67876C226.325 2.81749 217.985 4.54836 206.592 7.37242C198.475 9.42214 189.539 10.8342 188.571 10.242C187.901 9.87763 189.167 8.5567 190.656 8.05566C191.252 7.87346 192.965 7.41797 194.528 7.05358C196.911 6.46143 197.284 6.18814 197.284 4.95831C197.284 3.91067 196.837 3.45518 195.645 3.18189C191.996 2.362 186.263 4.36617 180.901 8.32896C178.071 10.4698 177.252 10.7886 175.689 10.5609C172.412 10.1054 167.423 8.6478 165.114 7.46352C163.923 6.82583 162.359 6.32479 161.615 6.32479C160.87 6.32479 158.785 7.23577 156.849 8.37451L153.423 10.4698L86.181 10.3331C16.8536 10.1965 9.03476 10.3331 2.40733 12.064C-0.19896 12.7017 -0.794684 13.7949 1.14142 14.2504C1.81161 14.387 31.2255 14.5237 66.5221 14.5237C101.893 14.5237 135.924 14.6603 142.254 14.797L153.721 15.1158L156.402 16.8467C157.891 17.8488 159.753 18.6231 160.498 18.6231C161.317 18.6231 163.178 17.9854 164.668 17.2566C168.465 15.3435 173.306 14.0682 176.954 14.0682C179.859 14.0682 180.231 14.2504 182.465 16.1634C189.763 22.677 206.964 21.9026 236.452 13.7038C245.761 11.153 248.292 10.7431 253.282 11.153L256.856 11.4719L255.218 13.1116C251.643 16.5734 253.803 22.3126 259.09 23.6335C260.952 24.1346 261.92 24.089 264.6 23.4513C270.707 22.0393 272.494 18.4865 269.217 14.387C268.175 13.0205 267.281 11.6085 267.281 11.1986C267.281 10.1509 273.536 7.41797 278.004 6.50698C283.366 5.4138 291.482 5.82374 298.557 7.55462C305.258 9.23994 306.003 10.1509 301.386 10.8797C291.408 12.4284 287.387 14.5237 287.387 18.1676C287.387 21.1283 292.45 24.089 297.44 24.089C301.833 24.089 307.12 21.8115 306.599 20.1262C306.301 19.2608 304.961 19.1697 298.408 19.7618C295.057 20.0807 294.908 20.0351 294.387 18.8964C293.791 17.3022 295.95 15.0703 299.301 14.0226C304.216 12.3828 310.471 13.0205 326.332 16.6189C338.023 19.3063 355.001 22.3581 364.831 23.6335C390.373 26.822 405.042 24.2257 428.499 12.2462C442.796 4.95831 448.456 3.36408 458.657 3.72848C469.753 4.09287 476.231 6.78028 469.157 8.05566C465.285 8.78445 462.902 10.0143 459.477 13.1116C455.381 16.8011 451.732 18.6231 448.605 18.6231C445.775 18.6231 445.179 18.0765 446.147 16.1179C447.562 13.1116 444.956 10.8797 440.19 10.8797C435.35 10.8797 432.594 12.8839 432.594 16.4367C432.669 20.9917 438.552 24.089 447.264 24.089C452.179 24.089 459.328 22.9047 463.647 21.3561L466.03 20.4906L471.838 22.0848C475.04 22.9047 478.391 23.6335 479.284 23.6335C480.178 23.6335 483.157 22.9503 485.837 22.0848L490.752 20.5362L496.114 21.9482C506.315 24.5901 517.783 24.089 522.251 20.855C526.719 17.621 526.421 13.0661 521.73 11.3352C515.475 9.0122 510.039 11.8818 512.049 16.4367C512.794 18.1676 512.794 18.1676 510.634 18.1676C507.507 18.1676 505.943 17.5299 499.464 13.7949C494.848 11.1075 490.603 9.14884 484.869 6.96248C484.72 6.87138 484.795 6.41589 485.093 5.86929C485.837 4.45727 490.975 3.13634 496.039 3.13634C504.007 3.13634 513.166 6.00594 529.995 13.7949C543.325 19.944 546.154 20.9461 557.399 23.4058C563.877 24.8634 565.292 25 572.515 25C591.951 25 605.95 22.9958 642.215 14.9792C650.778 13.1116 655.842 12.9294 658.523 14.4781C660.682 15.7535 661.129 17.8943 659.416 19.3519C658.597 20.0351 657.406 20.2173 653.98 20.2173C650.332 20.2173 649.661 20.354 649.438 21.0828C648.991 22.4492 651.374 23.178 655.917 23.178C665.299 23.178 669.916 18.3954 664.778 13.9315C662.916 12.3373 659.714 11.3352 654.502 10.652L650.406 10.1509L654.129 8.69335C665.969 4.00177 680.862 3.72848 688.756 8.05566L691.958 9.78653L689.203 11.3808C687.639 12.2462 685.926 13.476 685.33 14.1593C683.916 15.8446 683.99 18.8964 685.554 20.4906C686.82 21.8115 690.543 23.178 692.851 23.178C694.639 23.178 697.841 22.0393 699.926 20.6728C701.638 19.5341 701.787 19.1241 701.713 15.3891C701.564 11.3808 701.638 11.3352 703.351 11.3352C706.181 11.3352 713.925 13.0661 719.659 14.9336C728.595 17.8943 734.775 19.1241 744.605 19.9896C754.956 20.9006 766.274 18.9875 771.71 15.4802C774.838 13.5216 777.668 13.6127 783.997 15.8901C786.752 16.8922 789.954 17.7121 791.071 17.7121C792.188 17.7121 795.241 16.8922 797.922 15.9357C801.72 14.5237 803.879 14.0682 807.752 13.7949C810.507 13.6127 844.165 13.5671 882.515 13.7038L952.364 13.9315L952.81 12.3828C953.108 11.5174 953.034 10.6975 952.736 10.5153C952.438 10.3331 921.014 10.1965 882.887 10.1965C811.326 10.1965 804.773 10.0598 797.252 8.32896C791.295 6.96248 789.508 6.96248 786.231 8.5567C782.284 10.5153 778.412 11.4719 776.253 11.0164C775.285 10.8342 773.423 9.60434 772.008 8.37451C768.732 5.3227 765.232 4.27507 758.307 4.27507C752.722 4.27507 750.562 4.86721 750.562 6.37034C750.562 7.19022 751.009 7.23577 755.775 6.96248C761.583 6.59808 764.711 7.14468 766.572 8.87555C768.062 10.3331 767.987 11.1986 766.2 11.563C763.519 12.064 753.913 10.9253 745.35 9.05775C720.18 3.54628 691.958 0.676674 662.321 0.676674C635.587 0.631124 623.226 2.04315 605.205 7.28132C598.206 9.28549 593.738 10.3331 593.291 10.0598C592.919 9.83208 592.323 8.51115 592.025 7.09913C591.727 5.73265 590.908 4.09287 590.312 3.50073C588.451 1.76986 584.132 0.722223 580.185 0.995519C576.089 1.26881 573.409 2.4531 571.547 4.73056C569.909 6.78028 570.579 7.82791 573.558 8.05566C575.196 8.19231 575.866 7.87346 577.132 6.55253C579.366 4.22952 580.93 3.86512 583.313 5.00386C586.664 6.64363 587.185 10.4242 584.281 12.7472C583.164 13.6582 575.568 16.6645 572.813 17.3022C561.345 19.944 548.91 17.5299 546.899 12.2006L546.378 10.9708L551.963 11.0619C558.888 11.1075 560.675 10.3787 560.675 7.41797C560.675 5.1405 558.069 2.90859 554.197 1.95206C546.08 -0.143212 538.559 3.27298 537.218 9.74098C536.921 11.1986 536.399 12.2462 535.878 12.2462C534.836 12.2462 531.336 10.7886 523.07 7.00803C515.921 3.72848 508.326 1.54211 501.028 0.585576C494.029 -0.27986 490.975 -0.00656564 483.38 2.362L477.199 4.27507L474.816 3.40963C465.508 0.0845327 458.508 -0.735354 450.69 0.631125ZM270.26 4.68501C270.26 5.55045 269.366 6.09704 266.239 7.19022C261.845 8.7389 259.164 8.9211 252.09 8.10121C245.388 7.37242 235.484 8.9211 215.9 13.886C208.677 15.7079 206.368 16.0723 201.305 16.2545C197.73 16.3912 194.156 16.2545 192.592 15.9357C189.837 15.3891 187.826 14.2504 188.571 13.7493C188.869 13.6127 192.294 13.0205 196.315 12.4284C200.337 11.8363 209.719 10.1054 217.091 8.60225C236.229 4.77611 245.537 3.63738 259.313 3.63738L270.26 3.59183V4.68501ZM325.364 4.32062C335.194 5.45935 343.385 7.46352 359.767 12.7472C380.469 19.3974 381.66 19.7163 389.256 19.6252C392.607 19.6252 396.106 19.443 396.851 19.3063C398.787 18.9419 398.787 19.8074 396.851 20.4451C396.032 20.7184 392.681 21.1739 389.404 21.4472C375.926 22.5859 362.299 20.354 331.47 11.8363C323.205 9.55879 313.599 7.14467 310.248 6.50698C303.099 5.14051 302.131 4.86721 301.684 4.13842C301.237 3.31853 317.918 3.45518 325.364 4.32062ZM651.523 4.45727C651.523 5.00386 650.853 5.45935 649.885 5.6871C648.917 5.82374 639.46 8.32896 628.811 11.1986C604.163 17.8943 600.589 18.7597 591.951 20.1262C582.494 21.6749 579.068 21.9482 575.568 21.5838C571.324 21.1283 571.845 20.2629 576.983 19.0786C579.44 18.532 583.685 17.2566 586.515 16.2545C598.057 12.1095 615.258 7.23577 624.343 5.55045C630.598 4.36617 638.119 3.68293 645.045 3.63738C651.002 3.59183 651.523 3.68293 651.523 4.45727ZM703.277 4.50281C712.212 5.18605 725.095 7.19022 738.052 9.96873C743.935 11.2441 751.903 12.565 755.775 12.975C763.668 13.7949 766.051 14.6148 763.594 15.7079C761.732 16.5734 757.562 17.2566 754.285 17.2566C750.339 17.2566 744.903 16.3001 731.201 13.1572C717.648 10.0598 708.787 8.60225 703.425 8.60225C698.958 8.60225 695.458 7.73682 693.373 6.09704C690.99 4.27507 691.288 3.59183 694.192 3.81958C695.458 3.95622 699.628 4.22952 703.277 4.50281ZM793.156 11.1986C794.869 12.1551 794.869 13.0205 793.007 13.6127C791.22 14.2048 787.795 13.7493 787.795 12.8839C787.795 12.2462 790.327 10.4242 791.295 10.4242C791.518 10.4242 792.412 10.7431 793.156 11.1986ZM165.636 11.9729C166.827 12.5195 166.902 12.7017 166.082 13.3394C164.817 14.2504 161.242 14.2959 160.051 13.3849C157.966 11.8363 162.657 10.6064 165.636 11.9729ZM695.83 13.6582C696.649 15.1614 695.532 17.6666 693.894 18.2132C691.362 19.033 690.245 18.3954 690.245 16.1634C690.245 14.5692 690.617 13.9771 691.883 13.4305C694.117 12.4284 695.234 12.5195 695.83 13.6582ZM263.558 15.0247C264.005 15.4802 264.302 16.5734 264.302 17.4388C264.302 18.8508 264.079 19.0786 262.515 19.0786C260.877 19.0786 260.579 18.8053 260.132 17.0289C259.909 15.8901 259.835 14.7059 260.132 14.2959C260.654 13.476 262.59 13.886 263.558 15.0247Z" fill="#787878"/>
</svg>
