<svg width="214" height="170" viewBox="0 0 214 170" fill="none" xmlns="http://www.w3.org/2000/svg">
<path d="M118.921 99.6905L129.571 95.6528L140.246 90.4564L176.804 58.5572L206.871 34.416L213.239 20.8835L194.149 0H179.374L149.712 30.983L126.456 50.5483L126.393 50.4799L125.933 50.9837L112.083 66.1622L108.159 73.6318L103.139 83.1882L71.566 112.878C71.6344 111.144 71.5164 109.567 71.3054 108.173C69.7748 98.0529 62.2787 89.2058 49.0256 81.876C39.3911 76.5478 31.3108 73.9571 24.3286 73.9571C18.9847 73.9571 14.3809 75.4907 10.6498 78.5137C1.47915 85.9258 1.45376 99.8744 3.59145 106.922C6.38528 116.122 11.9342 119.537 16.1165 120.788C17.7226 121.263 19.4261 121.506 21.1841 121.506C30.4708 121.506 38.9388 114.849 40.551 113.512C42.2194 112.119 43.2432 110.16 43.4379 108.002C43.6332 105.836 42.9729 103.732 41.5808 102.066C40.0315 100.208 37.7589 99.1451 35.3431 99.1451C33.4321 99.1451 31.5763 99.8217 30.1654 101.012C28.0622 102.73 23.7753 105.273 21.2488 105.273C20.9785 105.273 20.8297 105.236 20.7517 105.212C20.6023 105.168 19.8374 104.491 19.1456 102.206C18.0873 98.7157 18.6745 92.9291 20.8751 91.1518C21.6225 90.5453 22.7926 90.2375 24.3498 90.2375C27.1847 90.2375 32.4017 91.2564 41.1617 96.1039C49.6418 100.795 54.5122 105.805 55.2367 110.605C55.9914 115.601 52.2306 120.651 49.6847 123.531H0V169.312H211.697V134.496H80.8528L118.921 99.6905ZM154.169 35.7319L182.152 6.50199H191.285L205.507 22.0561L201.634 30.2876L172.494 53.6819L145.77 79.7104L127.315 58.3274L154.169 35.7319ZM126.375 60.1573L143.78 79.4438L131.91 88.7317L115.606 71.9567L126.375 60.1573ZM205.196 140.996V162.804H6.50078V161.179V131.65V130.025H8.12628H52.5148C52.6019 129.936 52.7035 129.832 52.8039 129.724C55.3492 127.08 63.092 119.023 61.6746 109.627C60.6223 102.659 54.7825 96.1922 44.3166 90.4086C31.5478 83.3467 22.0337 81.8518 16.7895 86.0975C11.6869 90.2308 11.4692 99.2781 12.9308 104.094C14.1644 108.154 16.1691 110.625 18.8922 111.439C25.3518 113.385 34.2231 106.096 34.3072 106.024C34.9929 105.446 36.0167 105.538 36.5961 106.23C37.1712 106.916 37.0774 107.941 36.3917 108.516C35.9756 108.862 26.1253 116.97 17.9676 114.553C14.1312 113.404 11.3912 110.205 9.82011 105.036C8.0519 99.2025 8.40747 88.6918 14.745 83.5674C21.1811 78.3553 31.6651 79.6965 45.8895 87.564C57.2825 93.8622 63.6774 101.126 64.8905 109.144C66.2711 118.299 60.5401 126.013 56.9656 130.025H62.832L108.4 87.1776L114.979 74.6459L129.31 88.8001L115.448 94.0533L64.1062 140.997H205.196V140.996Z" fill="black"/>
</svg>
