<svg width="225" height="225" viewBox="0 0 225 225" fill="none" xmlns="http://www.w3.org/2000/svg">
<path d="M53.0019 224.605C47.7319 224.605 42.4607 222.599 38.4487 218.586L6.01797 186.157C-2.00599 178.131 -2.00599 165.075 6.01797 157.05L38.1327 124.937C38.7375 124.331 39.5766 124.017 40.4298 124.076C41.2843 124.135 42.0701 124.563 42.5861 125.246L45.3673 128.931L163.381 10.9172C173.891 0.405562 189.616 -2.85136 203.438 2.61866L222.435 10.8769C223.454 11.3207 224.138 12.2971 224.208 13.4072L224.741 21.9874C224.836 23.5389 223.717 24.8999 222.176 25.1035L216.907 25.8006L217.289 31.0102C217.404 32.5724 216.28 33.9547 214.727 34.1606L209.413 34.8648L209.829 40.5301C209.944 42.0923 208.819 43.4734 207.267 43.6793L201.357 44.4616L201.718 50.2878C201.814 51.8394 200.695 53.2003 199.154 53.4039L193.885 54.101L194.267 59.3118C194.382 60.874 193.258 62.2563 191.705 62.4622L186.391 63.1664L186.807 68.8317C186.921 70.3939 185.797 71.775 184.244 71.9809L178.335 72.7632L178.696 78.5894C178.792 80.1409 177.673 81.5019 176.132 81.7055L170.863 82.4026L171.245 87.6134C171.36 89.1756 170.236 90.5579 168.683 90.7638L163.369 91.468L163.785 97.1321C163.899 98.6943 162.775 100.075 161.222 100.281L155.313 101.065L155.675 106.891C155.771 108.443 154.652 109.804 153.111 110.007L147.841 110.704L148.223 115.914C148.338 117.476 147.214 118.858 145.661 119.064L140.347 119.768L140.762 125.434C140.877 126.996 139.753 128.377 138.2 128.583L132.291 129.365L132.653 135.191C132.749 136.743 131.63 138.103 130.089 138.308L124.82 139.006L125.201 144.217C125.316 145.779 124.191 147.16 122.639 147.366L117.325 148.07L117.741 153.734C117.856 155.297 116.732 156.679 115.178 156.885L109.268 157.667L109.63 163.493C109.727 165.045 108.606 166.406 107.065 166.609L101.795 167.307L102.178 172.517C102.292 174.079 101.168 175.462 99.6154 175.667L94.3004 176.372L94.7158 182.036C94.8306 183.599 93.7063 184.98 92.1536 185.186L88.2138 185.707L91.9228 190.622C92.8116 191.799 92.6968 193.453 91.653 194.495L67.561 218.587C63.5443 222.599 58.2731 224.605 53.0019 224.605ZM39.9115 131.525L10.2015 161.234C4.48418 166.952 4.48418 176.254 10.2015 181.973L42.6323 214.404C48.3508 220.121 57.6529 220.12 63.3715 214.404L85.6433 192.131L79.617 184.143C79.6135 184.139 79.6088 184.133 79.604 184.127L39.9115 131.525ZM80.6597 175.699L84.1154 180.278L88.6055 179.684L88.1901 174.02C88.0753 172.457 89.1996 171.076 90.7523 170.87L96.0673 170.165L95.6851 164.956C95.5703 163.394 96.6946 162.011 98.2473 161.805L103.548 161.104L103.187 155.301C103.165 154.989 103.193 154.683 103.264 154.392C103.264 154.391 103.264 154.39 103.265 154.387C103.372 153.952 103.576 153.551 103.856 153.213C103.857 153.213 103.858 153.212 103.858 153.21C104.136 152.874 104.488 152.598 104.892 152.411C104.895 152.41 104.895 152.411 104.897 152.409C105.168 152.283 105.463 152.197 105.773 152.159L111.629 151.384L111.213 145.72C111.099 144.156 112.223 142.775 113.776 142.569L119.089 141.865L118.708 136.654C118.594 135.092 119.718 133.711 121.271 133.505L126.571 132.803L126.21 127.002C126.188 126.686 126.216 126.378 126.289 126.085C126.287 126.083 126.29 126.081 126.29 126.08C126.397 125.647 126.602 125.249 126.878 124.913C126.879 124.913 126.881 124.911 126.881 124.909C127.161 124.572 127.515 124.295 127.922 124.108C127.924 124.107 127.925 124.107 127.926 124.106C128.196 123.983 128.489 123.898 128.795 123.86L134.651 123.084L134.236 117.419C134.121 115.857 135.245 114.476 136.798 114.27L142.112 113.566L141.729 108.356C141.615 106.793 142.739 105.412 144.292 105.206L149.592 104.504L149.231 98.7049C149.208 98.3842 149.238 98.0718 149.312 97.7747C149.313 97.7735 149.313 97.7723 149.313 97.77C149.423 97.3345 149.63 96.9356 149.911 96.5995C149.912 96.5995 149.915 96.5972 149.914 96.5948C150.185 96.2705 150.528 96.0031 150.921 95.8173C150.921 95.8173 150.926 95.8161 150.925 95.8149C151.201 95.6859 151.501 95.5959 151.818 95.5581L157.673 94.7829L157.258 89.1176C157.143 87.5554 158.267 86.1743 159.82 85.9684L165.134 85.2642L164.751 80.0546C164.637 78.4924 165.761 77.1101 167.314 76.9042L172.614 76.2023L172.255 70.3986C172.232 70.0897 172.261 69.7867 172.329 69.4992C172.328 69.498 172.328 69.4968 172.33 69.4944C172.436 69.0601 172.637 68.6613 172.911 68.324C172.913 68.324 172.911 68.324 172.915 68.3204C173.196 67.976 173.554 67.6955 173.968 67.5062C173.968 67.5062 173.97 67.505 173.971 67.505H173.972C174.242 67.3819 174.534 67.2967 174.841 67.2588L180.695 66.4837L180.28 60.8184C180.165 59.2562 181.289 57.8751 182.842 57.6691L188.156 56.965L187.774 51.7553C187.659 50.1931 188.783 48.8108 190.336 48.6049L195.637 47.9031L195.277 42.1005C195.254 41.7822 195.284 41.4721 195.357 41.1763C195.466 40.7419 195.671 40.3431 195.949 40.007C195.95 40.0058 195.951 40.0046 195.953 40.0034C196.224 39.6756 196.57 39.4058 196.964 39.2188C196.967 39.2188 196.968 39.2176 196.969 39.2176C197.246 39.0874 197.547 38.9975 197.865 38.9596L203.719 38.1844L203.303 32.5191C203.188 30.9569 204.313 29.5758 205.865 29.3699L211.179 28.6657L210.797 23.4561C210.682 21.8939 211.806 20.5116 213.359 20.3057L218.66 19.6039L218.41 15.586L201.166 8.08749C189.633 3.52402 176.405 6.26257 167.561 15.1055L48.9662 133.699L80.6597 175.699ZM54.1617 210.265C51.648 210.265 49.1355 209.309 47.223 207.395L17.2101 177.382C15.3568 175.529 14.3354 173.065 14.3354 170.444C14.3354 167.822 15.3568 165.358 17.2101 163.505L19.5486 161.166C21.4019 159.313 23.8659 158.292 26.4873 158.292C29.1087 158.292 31.5727 159.312 33.426 161.166L63.439 191.179C67.2639 195.005 67.2639 201.232 63.439 205.057L61.0992 207.396C59.1879 209.309 56.6742 210.265 54.1617 210.265ZM26.4873 164.209C25.4471 164.209 24.4683 164.614 23.7322 165.35L21.3937 167.688C20.6575 168.425 20.2528 169.403 20.2528 170.444C20.2528 171.484 20.6587 172.463 21.3937 173.199L51.4066 203.212C52.9261 204.73 55.3961 204.73 56.9156 203.212L59.2554 200.872C60.7738 199.353 60.7738 196.881 59.2554 195.363L29.2425 165.35C28.5063 164.614 27.5288 164.209 26.4873 164.209Z" fill="black"/>
</svg>
